<?xml version="1.0" encoding="UTF-8"?>
<!-- Created with Inkscape (http://www.inkscape.org/) -->
<svg width="68.597mm" height="32.598mm" version="1.1" viewBox="0 0 68.597 32.598" xmlns="http://www.w3.org/2000/svg" xmlns:cc="http://creativecommons.org/ns#" xmlns:dc="http://purl.org/dc/elements/1.1/" xmlns:rdf="http://www.w3.org/1999/02/22-rdf-syntax-ns#">
 <metadata>
  <rdf:RDF>
   <cc:Work rdf:about="">
    <dc:format>image/svg+xml</dc:format>
    <dc:type rdf:resource="http://purl.org/dc/dcmitype/StillImage"/>
    <dc:title/>
   </cc:Work>
  </rdf:RDF>
 </metadata>
 <g transform="translate(317.78 -36.528)">
  <g stroke-width=".23825">
   <path d="m-306.35 36.528a11.433 11.433 0 0 0-11.433 11.433v18.969h5.9257v-8.9648a11.433 11.433 0 0 0 5.5072 1.4283 11.433 11.433 0 0 0 11.433-11.433 11.433 11.433 0 0 0-11.433-11.433zm0 5.9257a5.5071 5.5071 0 0 1 5.5072 5.5072 5.5071 5.5071 0 0 1-5.5072 5.5072 5.5071 5.5071 0 0 1-5.5072-5.5072 5.5071 5.5071 0 0 1 5.5072-5.5072z"/>
   <path d="m-283.48 36.528a11.433 11.433 0 0 0-11.433 11.433 11.433 11.433 0 0 0 11.433 11.433 11.433 11.433 0 0 0 11.433-11.433 11.433 11.433 0 0 0-11.433-11.433zm0 5.9257a5.5071 5.5071 0 0 1 5.5072 5.5072 5.5071 5.5071 0 0 1-5.5072 5.5072 5.5071 5.5071 0 0 1-5.5072-5.5072 5.5071 5.5071 0 0 1 5.5072-5.5072z"/>
   <path d="m-260.62 36.528a11.433 11.433 0 0 0-11.433 11.433v18.969h5.9257v-8.9648a11.433 11.433 0 0 0 5.5072 1.4283 11.433 11.433 0 0 0 11.433-11.433 11.433 11.433 0 0 0-11.433-11.433zm0 5.9257a5.5071 5.5071 0 0 1 5.5072 5.5072 5.5071 5.5071 0 0 1-5.5072 5.5072 5.5071 5.5071 0 0 1-5.5072-5.5072 5.5071 5.5071 0 0 1 5.5072-5.5072z"/>
  </g>
  <g stroke-width=".26458" aria-label="Kollegiet">
   <path d="m-310.8 66.914h0.93134v-2.7199l0.67733-0.78317 2.3495 3.5031h1.0901l-2.7834-4.1063 2.5718-3.0268h-1.1324l-2.1802 2.6776c-0.17991 0.23283-0.37041 0.48683-0.56091 0.762h-0.0317v-3.4396h-0.93134z"/>
   <path d="m-302.89 61.686c-1.3864 0-2.5506 0.97367-2.5506 2.6882 0 1.651 1.0901 2.6564 2.4342 2.6564 1.1853 0 2.5718-0.78317 2.5718-2.6776 0-1.6404-1.0266-2.667-2.4553-2.667zm-0.0529 0.68792c1.1536 0 1.5663 1.1007 1.5663 1.9897 0 1.0372-0.55033 1.9685-1.5663 1.9685-1.0372 0-1.5558-0.93133-1.5558-1.9579 0-0.91017 0.41275-2.0002 1.5558-2.0002z"/>
   <path d="m-299.26 66.914h0.92075v-7.5142h-0.92075z"/>
   <path d="m-296.78 66.914h0.92075v-7.5142h-0.92075z"/>
   <path d="m-290.19 64.523c0.0212-0.09525 0.0423-0.24342 0.0423-0.43392 0-0.94192-0.4445-2.4024-2.1061-2.4024-1.5028 0-2.413 1.2065-2.413 2.7622 0 1.5346 0.94191 2.5823 2.5188 2.5823 0.81492 0 1.3864-0.17992 1.7039-0.32808l-0.15875-0.66675c-0.33867 0.14817-0.75142 0.26458-1.4182 0.26458-0.94192 0-1.7357-0.51858-1.7568-1.778zm-3.5772-0.66675c0.0741-0.64558 0.48683-1.5028 1.4288-1.5028 1.0478 0 1.3018 0.92075 1.2912 1.5028z"/>
   <path d="m-284.62 63.2c0-0.62442 0.0212-1.0372 0.0423-1.397h-0.81491l-0.0423 0.762h-0.0212c-0.22225-0.42333-0.70909-0.87842-1.5981-0.87842-1.1748 0-2.3072 0.97367-2.3072 2.7093 0 1.4182 0.89958 2.4977 2.1802 2.4977 0.78317 0 1.3441-0.381 1.6298-0.85725h0.0212v0.5715c0 1.2912-0.6985 1.7992-1.651 1.7992-0.635 0-1.1642-0.20108-1.5134-0.41275l-0.23284 0.70908c0.42334 0.27517 1.1007 0.42333 1.7145 0.42333 0.64559 0 1.3652-0.15875 1.8627-0.61383 0.49742-0.4445 0.73025-1.1536 0.73025-2.3389zm-0.92075 1.5346c0 0.15875-0.0212 0.33867-0.0741 0.49742-0.20109 0.59267-0.71967 0.96308-1.2912 0.96308-1.0054 0-1.524-0.84667-1.524-1.8521 0-1.1853 0.64558-1.9368 1.524-1.9368 0.68792 0 1.143 0.4445 1.3123 0.98425 0.0423 0.127 0.0529 0.26458 0.0529 0.42333z"/>
   <path d="m-282.2 66.914v-5.1117h-0.92075v5.1117zm-0.45508-7.1437c-0.33867 0-0.58208 0.26458-0.5715 0.58208-0.0106 0.3175 0.22225 0.5715 0.56092 0.5715 0.35983 0 0.59266-0.254 0.59266-0.5715-0.0106-0.32808-0.24341-0.58208-0.58208-0.58208z"/>
   <path d="m-276.53 64.523c0.0212-0.09525 0.0423-0.24342 0.0423-0.43392 0-0.94192-0.4445-2.4024-2.1061-2.4024-1.5028 0-2.413 1.2065-2.413 2.7622 0 1.5346 0.94191 2.5823 2.5188 2.5823 0.81492 0 1.3864-0.17992 1.7039-0.32808l-0.15875-0.66675c-0.33867 0.14817-0.75142 0.26458-1.4182 0.26458-0.94192 0-1.7357-0.51858-1.7568-1.778zm-3.5772-0.66675c0.0741-0.64558 0.48683-1.5028 1.4288-1.5028 1.0478 0 1.3018 0.92075 1.2912 1.5028z"/>
   <path d="m-275.11 60.564v1.2382h-0.79375v0.6985h0.79375v2.794c0 0.60325 0.10583 1.0477 0.34925 1.3441 0.22225 0.24342 0.58208 0.39158 1.0054 0.39158 0.37042 0 0.65617-0.05292 0.83609-0.13758l-0.0423-0.6985c-0.127 0.03175-0.29633 0.0635-0.53975 0.0635-0.51858 0-0.6985-0.35983-0.6985-0.99483v-2.7622h1.3335v-0.6985h-1.3335v-1.4817z"/>
  </g>
 </g>
</svg>
